G04*
G04 #@! TF.GenerationSoftware,Altium Limited,Altium Designer,26.3.0 (6)*
G04*
G04 Layer_Color=32768*
%FSLAX43Y43*%
%MOMM*%
G71*
G04*
G04 #@! TF.SameCoordinates,B9FDA8FC-60BE-4E6C-A3E7-BEE8CE582C6B*
G04*
G04*
G04 #@! TF.FilePolarity,Positive*
G04*
G01*
G75*
%ADD62C,0.100*%
D62*
X182000Y4500D02*
Y40500D01*
X146000Y4500D02*
X182000D01*
X146000D02*
Y40500D01*
X182000D01*
X187500Y107000D02*
X223500D01*
X187500Y71000D02*
Y107000D01*
Y71000D02*
X223500D01*
Y107000D01*
X187500Y65500D02*
X223500D01*
X187500Y29500D02*
Y65500D01*
Y29500D02*
X223500D01*
Y65500D01*
X183000Y99000D02*
Y135000D01*
X147000Y99000D02*
X183000D01*
X147000D02*
Y135000D01*
X183000D01*
X120659Y123438D02*
X120707Y123343D01*
X120802Y123248D01*
X120897Y123200D01*
X121088D01*
X121183Y123248D01*
X121278Y123343D01*
X121326Y123438D01*
X121374Y123581D01*
Y123819D01*
X121326Y123962D01*
X121278Y124057D01*
X121183Y124152D01*
X121088Y124200D01*
X120897D01*
X120802Y124152D01*
X120707Y124057D01*
X120659Y123962D01*
X120379Y123391D02*
X120283Y123343D01*
X120140Y123200D01*
Y124200D01*
X119026Y123533D02*
X119074Y123676D01*
X119169Y123771D01*
X119312Y123819D01*
X119360D01*
X119503Y123771D01*
X119598Y123676D01*
X119645Y123533D01*
Y123486D01*
X119598Y123343D01*
X119503Y123248D01*
X119360Y123200D01*
X119312D01*
X119169Y123248D01*
X119074Y123343D01*
X119026Y123533D01*
Y123771D01*
X119074Y124009D01*
X119169Y124152D01*
X119312Y124200D01*
X119407D01*
X119550Y124152D01*
X119598Y124057D01*
X120983Y102238D02*
X121031Y102143D01*
X121126Y102048D01*
X121221Y102000D01*
X121412D01*
X121507Y102048D01*
X121602Y102143D01*
X121650Y102238D01*
X121697Y102381D01*
Y102619D01*
X121650Y102762D01*
X121602Y102857D01*
X121507Y102952D01*
X121412Y103000D01*
X121221D01*
X121126Y102952D01*
X121031Y102857D01*
X120983Y102762D01*
X120702Y102191D02*
X120607Y102143D01*
X120464Y102000D01*
Y103000D01*
X119731Y102000D02*
X119874Y102048D01*
X119922Y102143D01*
Y102238D01*
X119874Y102333D01*
X119779Y102381D01*
X119588Y102429D01*
X119445Y102476D01*
X119350Y102571D01*
X119303Y102667D01*
Y102809D01*
X119350Y102905D01*
X119398Y102952D01*
X119541Y103000D01*
X119731D01*
X119874Y102952D01*
X119922Y102905D01*
X119969Y102809D01*
Y102667D01*
X119922Y102571D01*
X119826Y102476D01*
X119684Y102429D01*
X119493Y102381D01*
X119398Y102333D01*
X119350Y102238D01*
Y102143D01*
X119398Y102048D01*
X119541Y102000D01*
X119731D01*
X121783Y34738D02*
X121831Y34643D01*
X121926Y34548D01*
X122021Y34500D01*
X122212D01*
X122307Y34548D01*
X122402Y34643D01*
X122450Y34738D01*
X122497Y34881D01*
Y35119D01*
X122450Y35262D01*
X122402Y35357D01*
X122307Y35452D01*
X122212Y35500D01*
X122021D01*
X121926Y35452D01*
X121831Y35357D01*
X121783Y35262D01*
X121502Y34691D02*
X121407Y34643D01*
X121264Y34500D01*
Y35500D01*
X120484Y34500D02*
X120626Y34548D01*
X120722Y34691D01*
X120769Y34929D01*
Y35071D01*
X120722Y35309D01*
X120626Y35452D01*
X120484Y35500D01*
X120388D01*
X120245Y35452D01*
X120150Y35309D01*
X120103Y35071D01*
Y34929D01*
X120150Y34691D01*
X120245Y34548D01*
X120388Y34500D01*
X120484D01*
X121693Y11938D02*
X121740Y11843D01*
X121836Y11748D01*
X121931Y11700D01*
X122121D01*
X122217Y11748D01*
X122312Y11843D01*
X122359Y11938D01*
X122407Y12081D01*
Y12319D01*
X122359Y12462D01*
X122312Y12557D01*
X122217Y12652D01*
X122121Y12700D01*
X121931D01*
X121836Y12652D01*
X121740Y12557D01*
X121693Y12462D01*
X120793Y12033D02*
X120841Y12176D01*
X120936Y12271D01*
X121079Y12319D01*
X121126D01*
X121269Y12271D01*
X121364Y12176D01*
X121412Y12033D01*
Y11986D01*
X121364Y11843D01*
X121269Y11748D01*
X121126Y11700D01*
X121079D01*
X120936Y11748D01*
X120841Y11843D01*
X120793Y12033D01*
Y12271D01*
X120841Y12509D01*
X120936Y12652D01*
X121079Y12700D01*
X121174D01*
X121317Y12652D01*
X121364Y12557D01*
M02*
