G04*
G04 #@! TF.GenerationSoftware,Altium Limited,Altium Designer,26.3.0 (6)*
G04*
G04 Layer_Color=16711935*
%FSLAX43Y43*%
%MOMM*%
G71*
G04*
G04 #@! TF.SameCoordinates,B9FDA8FC-60BE-4E6C-A3E7-BEE8CE582C6B*
G04*
G04*
G04 #@! TF.FilePolarity,Negative*
G04*
G01*
G75*
%ADD37O,1.511X2.819*%
%ADD38O,2.819X1.511*%
%ADD39C,1.403*%
%ADD40C,1.880*%
%ADD41C,4.400*%
%ADD42C,2.063*%
G04:AMPARAMS|DCode=43|XSize=9.9mm|YSize=2mm|CornerRadius=1mm|HoleSize=0mm|Usage=FLASHONLY|Rotation=90.000|XOffset=0mm|YOffset=0mm|HoleType=Round|Shape=RoundedRectangle|*
%AMROUNDEDRECTD43*
21,1,9.900,0.000,0,0,90.0*
21,1,7.900,2.000,0,0,90.0*
1,1,2.000,0.000,3.950*
1,1,2.000,0.000,-3.950*
1,1,2.000,0.000,-3.950*
1,1,2.000,0.000,3.950*
%
%ADD43ROUNDEDRECTD43*%
%ADD44R,1.880X1.880*%
%ADD45C,3.700*%
%ADD46R,9.900X2.000*%
G04:AMPARAMS|DCode=47|XSize=9.9mm|YSize=2mm|CornerRadius=1mm|HoleSize=0mm|Usage=FLASHONLY|Rotation=180.000|XOffset=0mm|YOffset=0mm|HoleType=Round|Shape=RoundedRectangle|*
%AMROUNDEDRECTD47*
21,1,9.900,0.000,0,0,180.0*
21,1,7.900,2.000,0,0,180.0*
1,1,2.000,-3.950,0.000*
1,1,2.000,3.950,0.000*
1,1,2.000,3.950,0.000*
1,1,2.000,-3.950,0.000*
%
%ADD47ROUNDEDRECTD47*%
%ADD48R,2.063X2.063*%
%ADD49C,3.200*%
%ADD61C,1.203*%
D37*
X6000Y106000D02*
D03*
X5500Y27500D02*
D03*
D38*
X11000Y111000D02*
D03*
Y101000D02*
D03*
X10500Y32500D02*
D03*
Y22500D02*
D03*
D39*
X3500Y111000D02*
D03*
X6000Y111000D02*
D03*
X11000Y106000D02*
D03*
X3500Y101000D02*
D03*
X6000Y101000D02*
D03*
X5500Y22500D02*
D03*
X3000D02*
D03*
X10500Y27500D02*
D03*
X5500Y32500D02*
D03*
X3000D02*
D03*
D40*
X68000Y93500D02*
D03*
Y90960D02*
D03*
Y88420D02*
D03*
X75620Y88420D02*
D03*
Y90960D02*
D03*
Y93500D02*
D03*
X76500Y29580D02*
D03*
X76500Y27040D02*
D03*
Y24500D02*
D03*
X68880Y24500D02*
D03*
Y27040D02*
D03*
X68880Y29580D02*
D03*
X68000Y96040D02*
D03*
X68000Y85880D02*
D03*
X68000Y83340D02*
D03*
X75620D02*
D03*
Y85880D02*
D03*
Y96040D02*
D03*
Y98580D02*
D03*
X76500Y34660D02*
D03*
Y32120D02*
D03*
Y21960D02*
D03*
Y19420D02*
D03*
X68880D02*
D03*
X68880Y21960D02*
D03*
X68880Y32120D02*
D03*
D41*
X177400Y117000D02*
D03*
X217900Y47500D02*
D03*
X217900Y89000D02*
D03*
X176400Y22500D02*
D03*
X151600D02*
D03*
X193100Y89000D02*
D03*
X193100Y47500D02*
D03*
X152600Y117000D02*
D03*
D42*
X64500Y54960D02*
D03*
Y52420D02*
D03*
D43*
X15250Y67250D02*
D03*
X36750Y57750D02*
D03*
D44*
X68000Y98580D02*
D03*
X68880Y34660D02*
D03*
D45*
X5000Y135500D02*
D03*
X225000D02*
D03*
Y5000D02*
D03*
D46*
X21250Y51750D02*
D03*
D47*
X30750Y73250D02*
D03*
D48*
X64500Y57500D02*
D03*
D49*
X4500Y5000D02*
D03*
D61*
X65000Y19250D02*
D03*
X63100Y20125D02*
D03*
X54100Y22600D02*
D03*
X43200Y19600D02*
D03*
X42100Y17000D02*
D03*
X67200Y22200D02*
D03*
X85100Y33800D02*
D03*
X66700Y30800D02*
D03*
X54300Y18300D02*
D03*
X66100Y18200D02*
D03*
X80100Y29500D02*
D03*
Y32200D02*
D03*
X79300Y18100D02*
D03*
X43800Y11900D02*
D03*
X24000Y23900D02*
D03*
X20500Y31300D02*
D03*
X20600Y28700D02*
D03*
X8100Y19400D02*
D03*
X10200Y48500D02*
D03*
X52900Y12000D02*
D03*
X61800Y81500D02*
D03*
X63341Y81551D02*
D03*
X65000Y80800D02*
D03*
X64700Y86000D02*
D03*
X82000Y94000D02*
D03*
X68400Y61800D02*
D03*
X79400Y80900D02*
D03*
X86600Y99600D02*
D03*
X66800Y78300D02*
D03*
X19700Y7300D02*
D03*
X77800Y97200D02*
D03*
X34500Y87000D02*
D03*
X77300Y84500D02*
D03*
X78700Y92200D02*
D03*
X79300Y88400D02*
D03*
X76200Y101700D02*
D03*
X64200Y97000D02*
D03*
X50800Y95200D02*
D03*
X37600Y90000D02*
D03*
X11800Y19400D02*
D03*
X24800Y92900D02*
D03*
X47200Y90000D02*
D03*
X177500Y98000D02*
D03*
X107500Y98900D02*
D03*
X131900Y89100D02*
D03*
X78600Y96000D02*
D03*
X19300Y78500D02*
D03*
X8900Y68100D02*
D03*
X4900Y83800D02*
D03*
X15000Y101000D02*
D03*
X22900Y104100D02*
D03*
X23200Y108600D02*
D03*
M02*
