G04*
G04 #@! TF.GenerationSoftware,Altium Limited,Altium Designer,26.3.0 (6)*
G04*
G04 Layer_Color=128*
%FSLAX43Y43*%
%MOMM*%
G71*
G04*
G04 #@! TF.SameCoordinates,B9FDA8FC-60BE-4E6C-A3E7-BEE8CE582C6B*
G04*
G04*
G04 #@! TF.FilePolarity,Positive*
G04*
G01*
G75*
%ADD13C,0.127*%
D13*
X5600Y106000D02*
X6400D01*
X6000Y105600D02*
Y106400D01*
X10600Y111000D02*
X11400D01*
X11000Y110600D02*
Y111400D01*
X2900Y111000D02*
X4100D01*
X3500Y110400D02*
Y111600D01*
X5400Y111000D02*
X6600D01*
X6000Y110400D02*
Y111600D01*
X10400Y106000D02*
X11600D01*
X11000Y105400D02*
Y106600D01*
X2900Y101000D02*
X4100D01*
X3500Y100400D02*
Y101600D01*
X5400Y101000D02*
X6600D01*
X6000Y100400D02*
Y101600D01*
X10600Y101000D02*
X11400D01*
X11000Y100600D02*
Y101400D01*
X4900Y22500D02*
X6100D01*
X5500Y21900D02*
Y23100D01*
X2400Y22500D02*
X3600D01*
X3000Y21900D02*
Y23100D01*
X9900Y27500D02*
X11100D01*
X10500Y26900D02*
Y28100D01*
X4900Y32500D02*
X6100D01*
X5500Y31900D02*
Y33100D01*
X2400Y32500D02*
X3600D01*
X3000Y31900D02*
Y33100D01*
X10100Y32500D02*
X10900D01*
X10500Y32100D02*
Y32900D01*
X5100Y27500D02*
X5900D01*
X5500Y27100D02*
Y27900D01*
X10100Y22500D02*
X10900D01*
X10500Y22100D02*
Y22900D01*
X67441Y93500D02*
X68559D01*
X68000Y92941D02*
Y94059D01*
X67441Y90960D02*
X68559D01*
X68000Y90401D02*
Y91519D01*
X67441Y88420D02*
X68559D01*
X68000Y87861D02*
Y88979D01*
X75061Y88420D02*
X76179D01*
X75620Y87861D02*
Y88979D01*
X75061Y90960D02*
X76179D01*
X75620Y90401D02*
Y91519D01*
X75061Y93500D02*
X76179D01*
X75620Y92941D02*
Y94059D01*
X175200Y117000D02*
X179600D01*
X177400Y114800D02*
Y119200D01*
X215700Y47500D02*
X220100D01*
X217900Y45300D02*
Y49700D01*
X215700Y89000D02*
X220100D01*
X217900Y86800D02*
Y91200D01*
X75941Y29580D02*
X77059D01*
X76500Y29021D02*
Y30139D01*
X75941Y27040D02*
X77059D01*
X76500Y26481D02*
Y27599D01*
X75941Y24500D02*
X77059D01*
X76500Y23941D02*
Y25059D01*
X68321Y24500D02*
X69439D01*
X68880Y23941D02*
Y25059D01*
X68321Y27040D02*
X69439D01*
X68880Y26481D02*
Y27599D01*
X68321Y29580D02*
X69439D01*
X68880Y29021D02*
Y30139D01*
X63880Y54960D02*
X65120D01*
X64500Y54340D02*
Y55580D01*
X14550Y67250D02*
X15950D01*
X15250Y66550D02*
Y67950D01*
X174200Y22500D02*
X178600D01*
X176400Y20300D02*
Y24700D01*
X67441Y98580D02*
X68559D01*
X68000Y98021D02*
Y99139D01*
X67441Y96040D02*
X68559D01*
X68000Y95481D02*
Y96599D01*
X67441Y85880D02*
X68559D01*
X68000Y85321D02*
Y86439D01*
X67441Y83340D02*
X68559D01*
X68000Y82781D02*
Y83899D01*
X75061Y83340D02*
X76179D01*
X75620Y82781D02*
Y83899D01*
X75061Y85880D02*
X76179D01*
X75620Y85321D02*
Y86439D01*
X75061Y96040D02*
X76179D01*
X75620Y95481D02*
Y96599D01*
X75061Y98580D02*
X76179D01*
X75620Y98021D02*
Y99139D01*
X75941Y34660D02*
X77059D01*
X76500Y34101D02*
Y35219D01*
X63880Y52420D02*
X65120D01*
X64500Y51800D02*
Y53040D01*
X75941Y32120D02*
X77059D01*
X76500Y31561D02*
Y32679D01*
X75941Y21960D02*
X77059D01*
X76500Y21401D02*
Y22519D01*
X75941Y19420D02*
X77059D01*
X76500Y18861D02*
Y19979D01*
X68321Y19420D02*
X69439D01*
X68880Y18861D02*
Y19979D01*
X68321Y21960D02*
X69439D01*
X68880Y21401D02*
Y22519D01*
X68321Y32120D02*
X69439D01*
X68880Y31561D02*
Y32679D01*
X68321Y34660D02*
X69439D01*
X68880Y34101D02*
Y35219D01*
X149400Y22500D02*
X153800D01*
X151600Y20300D02*
Y24700D01*
X3500Y135500D02*
X6500D01*
X5000Y134000D02*
Y137000D01*
X223500Y135500D02*
X226500D01*
X225000Y134000D02*
Y137000D01*
X20550Y51750D02*
X21950D01*
X21250Y51050D02*
Y52450D01*
X30050Y73250D02*
X31450D01*
X30750Y72550D02*
Y73950D01*
X36050Y57750D02*
X37450D01*
X36750Y57050D02*
Y58450D01*
X63880Y57500D02*
X65120D01*
X64500Y56880D02*
Y58120D01*
X190900Y89000D02*
X195300D01*
X193100Y86800D02*
Y91200D01*
X3000Y5000D02*
X6000D01*
X4500Y3500D02*
Y6500D01*
X190900Y47500D02*
X195300D01*
X193100Y45300D02*
Y49700D01*
X150400Y117000D02*
X154800D01*
X152600Y114800D02*
Y119200D01*
X223500Y5000D02*
X226500D01*
X225000Y3500D02*
Y6500D01*
X64700Y19250D02*
X65300D01*
X65000Y18950D02*
Y19550D01*
X62800Y20125D02*
X63400D01*
X63100Y19825D02*
Y20425D01*
X53800Y22600D02*
X54400D01*
X54100Y22300D02*
Y22900D01*
X42900Y19600D02*
X43500D01*
X43200Y19300D02*
Y19900D01*
X41800Y17000D02*
X42400D01*
X42100Y16700D02*
Y17300D01*
X66900Y22200D02*
X67500D01*
X67200Y21900D02*
Y22500D01*
X84800Y33800D02*
X85400D01*
X85100Y33500D02*
Y34100D01*
X66400Y30800D02*
X67000D01*
X66700Y30500D02*
Y31100D01*
X54000Y18300D02*
X54600D01*
X54300Y18000D02*
Y18600D01*
X65800Y18200D02*
X66400D01*
X66100Y17900D02*
Y18500D01*
X79800Y29500D02*
X80400D01*
X80100Y29200D02*
Y29800D01*
X79800Y32200D02*
X80400D01*
X80100Y31900D02*
Y32500D01*
X79000Y18100D02*
X79600D01*
X79300Y17800D02*
Y18400D01*
X43500Y11900D02*
X44100D01*
X43800Y11600D02*
Y12200D01*
X23700Y23900D02*
X24300D01*
X24000Y23600D02*
Y24200D01*
X20200Y31300D02*
X20800D01*
X20500Y31000D02*
Y31600D01*
X20300Y28700D02*
X20900D01*
X20600Y28400D02*
Y29000D01*
X7800Y19400D02*
X8400D01*
X8100Y19100D02*
Y19700D01*
X9900Y48500D02*
X10500D01*
X10200Y48200D02*
Y48800D01*
X52600Y12000D02*
X53200D01*
X52900Y11700D02*
Y12300D01*
X61500Y81500D02*
X62100D01*
X61800Y81200D02*
Y81800D01*
X63041Y81551D02*
X63641D01*
X63341Y81251D02*
Y81851D01*
X64700Y80800D02*
X65300D01*
X65000Y80500D02*
Y81100D01*
X64400Y86000D02*
X65000D01*
X64700Y85700D02*
Y86300D01*
X81700Y94000D02*
X82300D01*
X82000Y93700D02*
Y94300D01*
X68100Y61800D02*
X68700D01*
X68400Y61500D02*
Y62100D01*
X79100Y80900D02*
X79700D01*
X79400Y80600D02*
Y81200D01*
X86300Y99600D02*
X86900D01*
X86600Y99300D02*
Y99900D01*
X66500Y78300D02*
X67100D01*
X66800Y78000D02*
Y78600D01*
X19400Y7300D02*
X20000D01*
X19700Y7000D02*
Y7600D01*
X77500Y97200D02*
X78100D01*
X77800Y96900D02*
Y97500D01*
X34200Y87000D02*
X34800D01*
X34500Y86700D02*
Y87300D01*
X77000Y84500D02*
X77600D01*
X77300Y84200D02*
Y84800D01*
X78400Y92200D02*
X79000D01*
X78700Y91900D02*
Y92500D01*
X79000Y88400D02*
X79600D01*
X79300Y88100D02*
Y88700D01*
X75900Y101700D02*
X76500D01*
X76200Y101400D02*
Y102000D01*
X63900Y97000D02*
X64500D01*
X64200Y96700D02*
Y97300D01*
X50500Y95200D02*
X51100D01*
X50800Y94900D02*
Y95500D01*
X37300Y90000D02*
X37900D01*
X37600Y89700D02*
Y90300D01*
X11500Y19400D02*
X12100D01*
X11800Y19100D02*
Y19700D01*
X24500Y92900D02*
X25100D01*
X24800Y92600D02*
Y93200D01*
X46900Y90000D02*
X47500D01*
X47200Y89700D02*
Y90300D01*
X177200Y98000D02*
X177800D01*
X177500Y97700D02*
Y98300D01*
X107200Y98900D02*
X107800D01*
X107500Y98600D02*
Y99200D01*
X131600Y89100D02*
X132200D01*
X131900Y88800D02*
Y89400D01*
X78300Y96000D02*
X78900D01*
X78600Y95700D02*
Y96300D01*
X19000Y78500D02*
X19600D01*
X19300Y78200D02*
Y78800D01*
X8600Y68100D02*
X9200D01*
X8900Y67800D02*
Y68400D01*
X4600Y83800D02*
X5200D01*
X4900Y83500D02*
Y84100D01*
X14700Y101000D02*
X15300D01*
X15000Y100700D02*
Y101300D01*
X22600Y104100D02*
X23200D01*
X22900Y103800D02*
Y104400D01*
Y108600D02*
X23500D01*
X23200Y108300D02*
Y108900D01*
M02*
