G04*
G04 #@! TF.GenerationSoftware,Altium Limited,Altium Designer,26.3.0 (6)*
G04*
G04 Layer_Color=255*
%FSLAX43Y43*%
%MOMM*%
G71*
G04*
G04 #@! TF.SameCoordinates,B9FDA8FC-60BE-4E6C-A3E7-BEE8CE582C6B*
G04*
G04*
G04 #@! TF.FilePolarity,Positive*
G04*
G01*
G75*
%ADD41C,4.400*%
G04:AMPARAMS|DCode=43|XSize=9.9mm|YSize=2mm|CornerRadius=1mm|HoleSize=0mm|Usage=FLASHONLY|Rotation=90.000|XOffset=0mm|YOffset=0mm|HoleType=Round|Shape=RoundedRectangle|*
%AMROUNDEDRECTD43*
21,1,9.900,0.000,0,0,90.0*
21,1,7.900,2.000,0,0,90.0*
1,1,2.000,0.000,3.950*
1,1,2.000,0.000,-3.950*
1,1,2.000,0.000,-3.950*
1,1,2.000,0.000,3.950*
%
%ADD43ROUNDEDRECTD43*%
%ADD46R,9.900X2.000*%
G04:AMPARAMS|DCode=47|XSize=9.9mm|YSize=2mm|CornerRadius=1mm|HoleSize=0mm|Usage=FLASHONLY|Rotation=180.000|XOffset=0mm|YOffset=0mm|HoleType=Round|Shape=RoundedRectangle|*
%AMROUNDEDRECTD47*
21,1,9.900,0.000,0,0,180.0*
21,1,7.900,2.000,0,0,180.0*
1,1,2.000,-3.950,0.000*
1,1,2.000,3.950,0.000*
1,1,2.000,3.950,0.000*
1,1,2.000,-3.950,0.000*
%
%ADD47ROUNDEDRECTD47*%
%ADD51O,1.308X2.616*%
%ADD52O,2.616X1.308*%
%ADD53C,1.200*%
%ADD54C,1.676*%
%ADD55C,1.860*%
%ADD56R,1.676X1.676*%
%ADD57C,3.500*%
%ADD58R,1.860X1.860*%
%ADD59C,3.000*%
D41*
X177400Y117000D02*
D03*
X217900Y47500D02*
D03*
X217900Y89000D02*
D03*
X176400Y22500D02*
D03*
X151600D02*
D03*
X193100Y89000D02*
D03*
X193100Y47500D02*
D03*
X152600Y117000D02*
D03*
D43*
X15250Y67250D02*
D03*
X36750Y57750D02*
D03*
D46*
X21250Y51750D02*
D03*
D47*
X30750Y73250D02*
D03*
D51*
X6000Y106000D02*
D03*
X5500Y27500D02*
D03*
D52*
X11000Y111000D02*
D03*
Y101000D02*
D03*
X10500Y32500D02*
D03*
Y22500D02*
D03*
D53*
X3500Y111000D02*
D03*
X6000Y111000D02*
D03*
X11000Y106000D02*
D03*
X3500Y101000D02*
D03*
X6000Y101000D02*
D03*
X5500Y22500D02*
D03*
X3000D02*
D03*
X10500Y27500D02*
D03*
X5500Y32500D02*
D03*
X3000D02*
D03*
D54*
X68000Y93500D02*
D03*
Y90960D02*
D03*
Y88420D02*
D03*
X75620Y88420D02*
D03*
Y90960D02*
D03*
Y93500D02*
D03*
X76500Y29580D02*
D03*
X76500Y27040D02*
D03*
Y24500D02*
D03*
X68880Y24500D02*
D03*
Y27040D02*
D03*
X68880Y29580D02*
D03*
X68000Y96040D02*
D03*
X68000Y85880D02*
D03*
X68000Y83340D02*
D03*
X75620D02*
D03*
Y85880D02*
D03*
Y96040D02*
D03*
Y98580D02*
D03*
X76500Y34660D02*
D03*
Y32120D02*
D03*
Y21960D02*
D03*
Y19420D02*
D03*
X68880D02*
D03*
X68880Y21960D02*
D03*
X68880Y32120D02*
D03*
D55*
X64500Y54960D02*
D03*
Y52420D02*
D03*
D56*
X68000Y98580D02*
D03*
X68880Y34660D02*
D03*
D57*
X5000Y135500D02*
D03*
X225000D02*
D03*
Y5000D02*
D03*
D58*
X64500Y57500D02*
D03*
D59*
X4500Y5000D02*
D03*
M02*
