G04*
G04 #@! TF.GenerationSoftware,Altium Limited,Altium Designer,26.3.0 (6)*
G04*
G04 Layer_Color=16711935*
%FSLAX43Y43*%
%MOMM*%
G71*
G04*
G04 #@! TF.SameCoordinates,B9FDA8FC-60BE-4E6C-A3E7-BEE8CE582C6B*
G04*
G04*
G04 #@! TF.FilePolarity,Positive*
G04*
G01*
G75*
%ADD11C,0.200*%
%ADD13C,0.127*%
%ADD62C,0.100*%
%ADD63C,0.000*%
%ADD64C,0.169*%
D11*
X14300Y106000D02*
G03*
X14300Y106000I-100J0D01*
G01*
X13800Y27500D02*
G03*
X13800Y27500I-100J0D01*
G01*
X62060Y57500D02*
G03*
X62060Y57500I-100J0D01*
G01*
X45225Y19900D02*
X51575D01*
Y16700D02*
Y19900D01*
X45225Y16700D02*
X51575D01*
X45225D02*
Y19900D01*
X30250Y6750D02*
Y11250D01*
X34750D01*
Y6750D02*
Y11250D01*
X30250Y6750D02*
X34750D01*
X22250D02*
Y11250D01*
X26750D01*
Y6750D02*
Y11250D01*
X22250Y6750D02*
X26750D01*
X45400Y7050D02*
X47100D01*
X45400D02*
Y7950D01*
X47100D01*
Y7050D02*
Y7950D01*
X45525Y89725D02*
Y90275D01*
X44475D02*
X45525D01*
X44475Y89725D02*
Y90275D01*
Y89725D02*
X45525D01*
X39150Y84250D02*
X40850D01*
X39150D02*
Y85150D01*
X40850D01*
Y84250D02*
Y85150D01*
X39150Y89550D02*
X40850D01*
X39150D02*
Y90450D01*
X40850D01*
Y89550D02*
Y90450D01*
X44375Y84425D02*
X45425D01*
X44375D02*
Y84975D01*
X45425D01*
Y84425D02*
Y84975D01*
X81550Y95400D02*
X82450D01*
Y97100D01*
X81550D02*
X82450D01*
X81550Y95400D02*
Y97100D01*
X80900Y83325D02*
X84100D01*
Y89675D01*
X80900D02*
X84100D01*
X80900Y83325D02*
Y89675D01*
X7600Y84100D02*
X14400D01*
Y90900D01*
X7600D02*
X14400D01*
X7600Y84100D02*
Y90900D01*
X27750Y84250D02*
Y88750D01*
X32250D01*
Y84250D02*
Y88750D01*
X27750Y84250D02*
X32250D01*
X112400Y50000D02*
X129600D01*
X112400D02*
Y67200D01*
X129600D01*
Y50000D02*
Y67200D01*
X11675Y48175D02*
X40325Y48175D01*
X11675Y48175D02*
Y76825D01*
X40325Y76825D01*
Y48175D02*
Y76825D01*
X9818Y58634D02*
Y65366D01*
X1182D02*
X9818D01*
X1182Y58634D02*
Y65366D01*
Y58634D02*
X9818D01*
X39525Y94700D02*
Y97900D01*
Y94700D02*
X45875D01*
Y97900D01*
X39525D02*
X45875D01*
X19150Y104550D02*
Y105450D01*
Y104550D02*
X20850D01*
Y105450D01*
X19150D02*
X20850D01*
X19150Y109550D02*
Y110450D01*
Y109550D02*
X20850D01*
Y110450D01*
X19150D02*
X20850D01*
X18750Y84250D02*
X23250D01*
Y88750D01*
X18750D02*
X23250D01*
X18750Y84250D02*
Y88750D01*
X82550Y31900D02*
X83450D01*
Y33600D01*
X82550D02*
X83450D01*
X82550Y31900D02*
Y33600D01*
X129400Y72100D02*
Y89300D01*
X112200D02*
X129400D01*
X112200Y72100D02*
Y89300D01*
Y72100D02*
X129400D01*
X81900Y19325D02*
X85100D01*
Y25675D01*
X81900D02*
X85100D01*
X81900Y19325D02*
Y25675D01*
X17150Y27050D02*
Y27950D01*
Y27050D02*
X18850D01*
Y27950D01*
X17150D02*
X18850D01*
X50225Y7225D02*
X51275D01*
X50225D02*
Y7775D01*
X51275D01*
Y7225D02*
Y7775D01*
X50237Y11725D02*
X51287D01*
X50237D02*
Y12275D01*
X51287D01*
Y11725D02*
Y12275D01*
X17150Y32050D02*
Y32950D01*
Y32050D02*
X18850D01*
Y32950D01*
X17150D02*
X18850D01*
X47100Y11550D02*
Y12450D01*
X45400D02*
X47100D01*
X45400Y11550D02*
Y12450D01*
Y11550D02*
X47100D01*
X11100Y6400D02*
Y13200D01*
X17900D01*
Y6400D02*
Y13200D01*
X11100Y6400D02*
X17900D01*
D13*
X2500Y112000D02*
X13500D01*
Y100000D02*
Y112000D01*
X2500Y100000D02*
X13500D01*
X2500Y112000D02*
X2500Y110500D01*
Y101500D02*
Y110500D01*
X2500Y100000D02*
X2500Y101500D01*
X1500Y110500D02*
X2500D01*
X1500Y109000D02*
Y110500D01*
X500Y109000D02*
X1500D01*
X-800D02*
X500D01*
X-800Y103000D02*
Y109000D01*
Y103000D02*
X500D01*
X1500D01*
Y101500D02*
Y103000D01*
Y101500D02*
X2500D01*
X2500Y92750D02*
Y100000D01*
X500Y103000D02*
Y109000D01*
X0Y24500D02*
Y30500D01*
X2000Y14250D02*
Y21500D01*
X1000Y23000D02*
X2000D01*
X1000D02*
X1000Y24500D01*
X0D02*
X1000D01*
X-1300D02*
X0D01*
X-1300D02*
Y30500D01*
X0D01*
X1000D01*
X1000Y32000D02*
X1000Y30500D01*
X1000Y32000D02*
X2000D01*
Y23000D02*
X2000Y21500D01*
X2000Y23000D02*
Y32000D01*
X2000Y33500D01*
Y21500D02*
X13000D01*
Y33500D01*
X2000D02*
X13000D01*
X62660Y60230D02*
X67360Y60230D01*
X62660Y49690D02*
Y60230D01*
Y49690D02*
X67360Y49690D01*
Y60230D01*
D62*
X21475Y32225D02*
Y32775D01*
X22525Y32225D02*
Y32775D01*
X21475D02*
X22525D01*
X21475Y32225D02*
X22525D01*
X23975Y104725D02*
Y105275D01*
X25025Y104725D02*
Y105275D01*
X23975D02*
X25025D01*
X23975Y104725D02*
X25025D01*
X24400Y16150D02*
X27600D01*
X24400Y17850D02*
X27600D01*
Y16150D02*
Y17850D01*
X24400D02*
X24400Y16150D01*
X21475Y27225D02*
Y27775D01*
X22525Y27225D02*
Y27775D01*
X21475D02*
X22525D01*
X21475Y27225D02*
X22525D01*
X114150Y132250D02*
X128750D01*
X111650Y129750D02*
X114150Y132250D01*
X111650Y117650D02*
X114150Y115150D01*
X111650Y117650D02*
Y129750D01*
X128750Y115150D02*
Y132250D01*
X114150Y115150D02*
X128750D01*
X23975Y109725D02*
Y110275D01*
X25025Y109725D02*
Y110275D01*
X23975D02*
X25025D01*
X23975Y109725D02*
X25025D01*
X29825Y94650D02*
X33025D01*
X29825Y96350D02*
X33025D01*
X33025Y94650D02*
X33025Y96350D01*
X29825Y94650D02*
Y96350D01*
X114450Y93950D02*
X129050D01*
Y111050D01*
X111950Y96450D02*
Y108550D01*
Y96450D02*
X114450Y93950D01*
X111950Y108550D02*
X114450Y111050D01*
X129050D01*
X20800Y96350D02*
X20800Y94650D01*
X24000D02*
Y96350D01*
X20800D02*
X24000D01*
X20800Y94650D02*
X24000D01*
X115250Y26450D02*
X129850D01*
Y43550D01*
X112750Y28950D02*
Y41050D01*
Y28950D02*
X115250Y26450D01*
X112750Y41050D02*
X115250Y43550D01*
X129850D01*
X115550Y3650D02*
X130150D01*
Y20750D01*
X113050Y6150D02*
Y18250D01*
Y6150D02*
X115550Y3650D01*
X113050Y18250D02*
X115550Y20750D01*
X130150D01*
X32300Y17750D02*
X32300Y16050D01*
X35500D02*
Y17750D01*
X32300D02*
X35500D01*
X32300Y16050D02*
X35500D01*
D63*
X71505Y100815D02*
G03*
X72115Y100815I305J0D01*
G01*
X72385Y36895D02*
G03*
X72995Y36895I305J0D01*
G01*
X68254Y98021D02*
Y99139D01*
X67441Y99139D02*
X68254Y99139D01*
X67441Y98021D02*
Y99139D01*
Y98021D02*
X68254Y98021D01*
Y95481D02*
Y96599D01*
X67441Y96599D02*
X68254Y96599D01*
X67441Y95481D02*
Y96599D01*
Y95481D02*
X68254Y95481D01*
Y92941D02*
Y94059D01*
X67441D02*
X68254D01*
X67441Y92941D02*
Y94059D01*
Y92941D02*
X68254D01*
Y90401D02*
Y91519D01*
X67441D02*
X68254D01*
X67441Y90401D02*
Y91519D01*
Y90401D02*
X68254D01*
Y87861D02*
Y88979D01*
X67441Y88979D02*
X68254Y88979D01*
X67441Y87861D02*
Y88979D01*
Y87861D02*
X68254Y87861D01*
Y85321D02*
Y86439D01*
X67441Y86439D02*
X68254Y86439D01*
X67441Y85321D02*
Y86439D01*
Y85321D02*
X68254Y85321D01*
Y82781D02*
Y83899D01*
X67441Y83899D02*
X68254Y83899D01*
X67441Y82781D02*
Y83899D01*
Y82781D02*
X68254Y82781D01*
X75366D02*
Y83899D01*
Y82781D02*
X76179Y82781D01*
Y83899D01*
X75366Y83899D02*
X76179Y83899D01*
X75366Y85321D02*
Y86439D01*
Y85321D02*
X76179D01*
X76179Y86439D01*
X75366Y86439D02*
X76179Y86439D01*
X75366Y87861D02*
Y88979D01*
Y87861D02*
X76179D01*
Y88979D01*
X75366D02*
X76179D01*
X75366Y90401D02*
Y91519D01*
Y90401D02*
X76179Y90401D01*
Y91519D01*
X75366Y91519D02*
X76179Y91519D01*
X75366Y92941D02*
Y94059D01*
Y92941D02*
X76179D01*
Y94059D01*
X75366D02*
X76179D01*
X75366Y95481D02*
Y96599D01*
Y95481D02*
X76179D01*
Y96599D01*
X75366D02*
X76179D01*
X75366Y98021D02*
Y99139D01*
Y98021D02*
X76179Y98021D01*
Y99139D01*
X75366Y99139D02*
X76179Y99139D01*
X68254Y81105D02*
X75366D01*
Y100815D01*
X72115D02*
X75366D01*
X71505D02*
X72115D01*
X68254D02*
X71505D01*
X68254Y81105D02*
Y100815D01*
X69134Y17185D02*
Y36895D01*
X72385D01*
X72995D01*
X76246D01*
Y17185D02*
Y36895D01*
X69134Y17185D02*
X76246D01*
Y35219D02*
X77059D01*
Y34101D02*
Y35219D01*
X76246Y34101D02*
X77059D01*
X76246D02*
Y35219D01*
Y32679D02*
X77059D01*
Y31561D02*
Y32679D01*
X76246Y31561D02*
X77059D01*
X76246D02*
Y32679D01*
Y30139D02*
X77059Y30139D01*
Y29021D02*
Y30139D01*
X76246Y29021D02*
X77059Y29021D01*
X76246Y29021D02*
Y30139D01*
X76246Y27599D02*
X77059D01*
Y26481D02*
Y27599D01*
X76246Y26481D02*
X77059D01*
X76246D02*
Y27599D01*
X76246Y25059D02*
X77059D01*
Y23941D02*
Y25059D01*
X76246Y23941D02*
X77059D01*
X76246D02*
Y25059D01*
Y22519D02*
X77059D01*
Y21401D02*
Y22519D01*
X76246Y21401D02*
X77059D01*
X76246D02*
Y22519D01*
Y19979D02*
X77059D01*
Y18861D02*
Y19979D01*
X76246Y18861D02*
X77059D01*
X76246D02*
Y19979D01*
X68321Y18861D02*
X69134D01*
X68321D02*
Y19979D01*
X69134D01*
Y18861D02*
Y19979D01*
X68321Y21401D02*
X69134Y21401D01*
X68321Y21401D02*
Y22519D01*
X69134Y22519D01*
Y21401D02*
Y22519D01*
X68321Y23941D02*
X69134Y23941D01*
X68321Y23941D02*
Y25059D01*
X69134Y25059D01*
Y23941D02*
Y25059D01*
X68321Y26481D02*
X69134D01*
X68321D02*
Y27599D01*
X69134D01*
Y26481D02*
Y27599D01*
X68321Y29021D02*
X69134D01*
X68321D02*
Y30139D01*
X69134D01*
Y29021D02*
Y30139D01*
X68321Y31561D02*
X69134D01*
X68321D02*
Y32679D01*
X69134D01*
Y31561D02*
Y32679D01*
X68321Y34101D02*
X69134D01*
X68321D02*
Y35219D01*
X69134D01*
Y34101D02*
Y35219D01*
D64*
X2750Y99000D02*
X3563D01*
Y98594D01*
X3427Y98458D01*
X3156D01*
X3021Y98594D01*
Y99000D01*
X3427Y97646D02*
X3563Y97781D01*
Y98052D01*
X3427Y98187D01*
X2885D01*
X2750Y98052D01*
Y97781D01*
X2885Y97646D01*
X3563Y97375D02*
X2750D01*
Y96969D01*
X2885Y96833D01*
X3021D01*
X3156Y96969D01*
Y97375D01*
Y96969D01*
X3292Y96833D01*
X3427D01*
X3563Y96969D01*
Y97375D01*
Y95208D02*
Y95750D01*
X2750D01*
Y95208D01*
X3156Y95750D02*
Y95479D01*
X3563Y94937D02*
X2750D01*
Y94531D01*
X2885Y94396D01*
X3427D01*
X3563Y94531D01*
Y94937D01*
X3427Y93583D02*
X3563Y93718D01*
Y93989D01*
X3427Y94125D01*
X2885D01*
X2750Y93989D01*
Y93718D01*
X2885Y93583D01*
X3156D01*
Y93854D01*
X3563Y92771D02*
Y93312D01*
X2750D01*
Y92771D01*
X3156Y93312D02*
Y93041D01*
X2250Y20500D02*
X3063D01*
Y20094D01*
X2927Y19958D01*
X2656D01*
X2521Y20094D01*
Y20500D01*
X2927Y19146D02*
X3063Y19281D01*
Y19552D01*
X2927Y19687D01*
X2385D01*
X2250Y19552D01*
Y19281D01*
X2385Y19146D01*
X3063Y18875D02*
X2250D01*
Y18469D01*
X2385Y18333D01*
X2521D01*
X2656Y18469D01*
Y18875D01*
Y18469D01*
X2792Y18333D01*
X2927D01*
X3063Y18469D01*
Y18875D01*
Y16708D02*
Y17250D01*
X2250D01*
Y16708D01*
X2656Y17250D02*
Y16979D01*
X3063Y16437D02*
X2250D01*
Y16031D01*
X2385Y15896D01*
X2927D01*
X3063Y16031D01*
Y16437D01*
X2927Y15083D02*
X3063Y15219D01*
Y15489D01*
X2927Y15625D01*
X2385D01*
X2250Y15489D01*
Y15219D01*
X2385Y15083D01*
X2656D01*
Y15354D01*
X3063Y14271D02*
Y14812D01*
X2250D01*
Y14271D01*
X2656Y14812D02*
Y14541D01*
M02*
