G04*
G04 #@! TF.GenerationSoftware,Altium Limited,Altium Designer,26.3.0 (6)*
G04*
G04 Layer_Color=32768*
%FSLAX43Y43*%
%MOMM*%
G71*
G04*
G04 #@! TF.SameCoordinates,B9FDA8FC-60BE-4E6C-A3E7-BEE8CE582C6B*
G04*
G04*
G04 #@! TF.FilePolarity,Positive*
G04*
G01*
G75*
%ADD11C,0.200*%
%ADD62C,0.100*%
%ADD65C,0.050*%
D11*
X44119Y20553D02*
X52681Y20553D01*
Y16047D02*
Y20553D01*
X44119Y16047D02*
X52681D01*
X44119D02*
Y20553D01*
X30000Y5750D02*
Y12250D01*
X35000D01*
Y5750D02*
Y12250D01*
X30000Y5750D02*
X35000D01*
X22000D02*
Y12250D01*
X27000D01*
Y5750D02*
Y12250D01*
X22000Y5750D02*
X27000D01*
X44900Y6750D02*
X47600D01*
X44900D02*
Y8250D01*
X47600D01*
Y6750D02*
Y8250D01*
X45850Y89625D02*
Y90375D01*
X44150D02*
X45850D01*
X44150Y89625D02*
Y90375D01*
Y89625D02*
X45850D01*
X38650Y83950D02*
X41350D01*
X38650D02*
Y85450D01*
X41350D01*
Y83950D02*
Y85450D01*
X38650Y89250D02*
X41350D01*
X38650D02*
Y90750D01*
X41350D01*
Y89250D02*
Y90750D01*
X44050Y84325D02*
X45750D01*
X44050D02*
Y85075D01*
X45750D01*
Y84325D02*
Y85075D01*
X81250Y94900D02*
X82750D01*
Y97600D01*
X81250D02*
X82750D01*
X81250Y94900D02*
Y97600D01*
X80247Y82219D02*
X84753D01*
Y90781D01*
X80247D02*
X84753D01*
X80247Y82219D02*
X80247Y90781D01*
X6600Y81800D02*
X15400D01*
Y93200D01*
X6600D02*
X15400D01*
X6600Y81800D02*
Y93200D01*
X27500Y83250D02*
Y89750D01*
X32500D01*
Y83250D02*
Y89750D01*
X27500Y83250D02*
X32500D01*
X111250Y49750D02*
X130750D01*
X111250D02*
Y67450D01*
X130750D01*
Y49750D02*
Y67450D01*
X11575Y48075D02*
X40425D01*
X11575D02*
Y76925D01*
X40425D01*
Y48075D02*
Y76925D01*
X9918Y58344D02*
Y65656D01*
X1082D02*
X9918D01*
X1082Y58344D02*
Y65656D01*
Y58344D02*
X9918D01*
X38419Y94047D02*
Y98553D01*
Y94047D02*
X46981D01*
Y98553D01*
X38419Y98553D02*
X46981Y98553D01*
X18650Y104250D02*
Y105750D01*
Y104250D02*
X21350D01*
Y105750D01*
X18650D02*
X21350D01*
X18650Y109250D02*
Y110750D01*
Y109250D02*
X21350D01*
Y110750D01*
X18650D02*
X21350D01*
X18500Y83250D02*
X23500D01*
Y89750D01*
X18500D02*
X23500D01*
X18500Y83250D02*
Y89750D01*
X82250Y31400D02*
X83750D01*
Y34100D01*
X82250D02*
X83750D01*
X82250Y31400D02*
Y34100D01*
X130550Y71850D02*
Y89550D01*
X111050D02*
X130550D01*
X111050Y71850D02*
Y89550D01*
Y71850D02*
X130550D01*
X81247Y18219D02*
X85753D01*
Y26781D01*
X81247D02*
X85753D01*
X81247Y18219D02*
Y26781D01*
X16650Y26750D02*
Y28250D01*
Y26750D02*
X19350D01*
Y28250D01*
X16650D02*
X19350D01*
X49900Y7125D02*
X51600D01*
X49900D02*
Y7875D01*
X51600D01*
Y7125D02*
Y7875D01*
X49912Y11625D02*
X51612D01*
X49912D02*
Y12375D01*
X51612D01*
Y11625D02*
Y12375D01*
X16650Y31750D02*
Y33250D01*
Y31750D02*
X19350D01*
Y33250D01*
X16650D02*
X19350D01*
X47600Y11250D02*
Y12750D01*
X44900D02*
X47600D01*
X44900Y11250D02*
Y12750D01*
Y11250D02*
X47600D01*
X10100Y4100D02*
Y15500D01*
X18900D01*
Y4100D02*
Y15500D01*
X10100Y4100D02*
X18900D01*
D62*
X21725Y32500D02*
X22275D01*
X22000Y32225D02*
Y32775D01*
X24225Y105000D02*
X24775D01*
X24500Y104725D02*
Y105275D01*
X26000Y16500D02*
Y17500D01*
X25500Y17000D02*
X26500D01*
X21725Y27500D02*
X22275D01*
X22000Y27225D02*
Y27775D01*
X24225Y110000D02*
X24775D01*
X24500Y109725D02*
Y110275D01*
X31425Y95000D02*
Y96000D01*
X30925Y95500D02*
X31925D01*
X21900D02*
X22900D01*
X22400Y95000D02*
Y96000D01*
X33400Y16900D02*
X34400D01*
X33900Y16400D02*
Y17400D01*
D65*
X21100Y32050D02*
Y32950D01*
X22900Y32050D02*
Y32950D01*
X21100D02*
X22900D01*
X21100Y32050D02*
X22900D01*
X23600Y104550D02*
Y105450D01*
X25400Y104550D02*
Y105450D01*
X23600D02*
X25400D01*
X23600Y104550D02*
X25400D01*
X-1050Y99750D02*
Y112250D01*
Y99750D02*
X13750D01*
Y112250D01*
X-1050D02*
X13750D01*
X-1550Y33750D02*
X13250D01*
Y21250D02*
Y33750D01*
X-1550Y21250D02*
X13250D01*
X-1550D02*
Y33750D01*
X23800Y15900D02*
X28200D01*
X23800Y18100D02*
X28200D01*
Y15900D02*
Y18100D01*
X23800Y15900D02*
Y18100D01*
X21100Y27950D02*
X21100Y27050D01*
X22900Y27950D02*
X22900Y27050D01*
X21100Y27950D02*
X22900D01*
X21100Y27050D02*
X22900D01*
X129900Y114850D02*
Y132550D01*
X110500D02*
X129900D01*
X110500Y114850D02*
Y132550D01*
Y114850D02*
X129900D01*
X62410Y60480D02*
X67610D01*
X62410Y49440D02*
Y60480D01*
Y49440D02*
X67610D01*
Y60480D01*
X23600Y109550D02*
Y110450D01*
X25400Y109550D02*
Y110450D01*
X23600D02*
X25400D01*
X23600Y109550D02*
X25400D01*
X29225Y94400D02*
X33625D01*
X29225Y96600D02*
X33625D01*
Y94400D02*
Y96600D01*
X29225Y94400D02*
Y96600D01*
X110800Y93650D02*
X130200D01*
X110800D02*
Y111350D01*
X130200D01*
Y93650D02*
Y111350D01*
X20200Y94400D02*
Y96600D01*
X24600Y94400D02*
Y96600D01*
X20200D02*
X24600D01*
X20200Y94400D02*
X24600D01*
X111600Y26150D02*
X131000D01*
X111600D02*
Y43850D01*
X131000D01*
Y26150D02*
Y43850D01*
X111900Y3350D02*
X131300D01*
X111900D02*
Y21050D01*
X131300D01*
Y3350D02*
Y21050D01*
X31700Y15800D02*
Y18000D01*
X36100Y15800D02*
Y18000D01*
X31700D02*
X36100D01*
X31700Y15800D02*
X36100D01*
M02*
