M48
;Layer_Color=9474304
;FILE_FORMAT=4:3
METRIC,LZ
;TYPE=PLATED
T01F00S00C0.600
T03F00S00C1.118
T04F00S00C1.240
T06F00S00C3.000
;TYPE=NON_PLATED
T07F00S00C1.200
T08F00S00C4.400
%
T01
X00197Y00073
X00438Y00119
X00529Y0012
X00543Y00183
X00541Y00226
X00631Y0020125
X0065Y001925
X00661Y00182
X00672Y00222
X00667Y00308
X00801Y00295
Y00322
X00851Y00338
X00793Y00181
X00432Y00196
X00421Y0017
X0024Y00239
X00206Y00287
X00205Y00313
X00118Y00194
X00081
X00102Y00485
X00089Y00681
X00049Y00838
X00193Y00785
X00248Y00929
X00345Y0087
X00376Y009
X00472
X00647Y0086
X0065Y00808
X0063341Y0081551
X00618Y00815
X00668Y00783
X00794Y00809
X00773Y00845
X00793Y00884
X00787Y00922
X00684Y00618
X01319Y00891
X01775Y0098
X01075Y00989
X00866Y00996
X0082Y0094
X00786Y0096
X00778Y00972
X00762Y01017
X00642Y0097
X00508Y00952
X00229Y01041
X00232Y01086
X0015Y0101
T03
X006888Y001942
X006888Y002196
Y00245
Y002704
X006888Y002958
Y003212
X006888Y003466
X00765
Y003212
X00765Y002958
X00765Y002704
Y00245
Y002196
Y001942
X007562Y008334
Y008588
Y008842
Y009096
Y00935
X0068
Y009096
Y008842
X0068Y008588
X0068Y008334
Y009604
X0068Y009858
X007562
Y009604
T04
X00645Y005242
Y005496
Y00575
T06
X00045Y0005
X0225
X0005Y01355
X0225
T07
X0003Y00225
X00055
X00105Y00275
X00055Y00325
X0003
X00035Y0101
X0006Y0101
Y0111
X00035Y0111
X0011Y0106
T08
X02179Y00475
X01931
X01764Y00225
X01516
X01931Y0089
X02179
X01774Y0117
X01526
M30
