M48
;Layer_Color=9474304
;FILE_FORMAT=4:3
METRIC,LZ
;TYPE=PLATED
T02F00S00C0.800
T05F00S00C1.400
;TYPE=NON_PLATED
%
G90
G05
T02
G00X00055Y002785
M15
G01Y002715
M16
G00X001015Y00325
M15
G01X001085
M16
G00X001015Y00225
M15
G01X001085
M16
G00X001065Y0101
M15
G01X001135
M16
G00X0006Y010635
M15
G01Y010565
M16
G00X001065Y0111
M15
G01X001135
M16
T05
G00X00252Y005175
M15
G01X00173
M16
G00X001525Y00633
M15
G01Y00712
M16
G00X00347Y007325
M15
G01X00268
M16
G00X003675Y00538
M15
G01Y00617
M16
M17
M30
